#!OML:ASF F:\VICON\USERDATA\INSTALL\rory3\rory3.ASF
:FULLY-SPECIFIED
:DEGREES
262
root 4.57559 17.2577 0.649912 11.5562 -1.35358 -2.06767
lowerback -2.48119 -1.54363 9.2217
upperback -5.66139 -1.99762 1.05201
thorax -4.82399 -1.38247 -4.01532
lowerneck -10.1623 3.24195 -0.749778
upperneck 43.7446 4.93308 0.638571
head 17.9504 1.93192 1.27764
rclavicle -1.84e-014 -1.19271e-015
rhumerus 0.351005 -18.5251 -6.55712
rradius 116.041
rwrist -63.3186
rhand -2.44668 -43.1314
rfingers 7.12502
rthumb 23.2449 -71.7484
lclavicle -1.84e-014 -1.19271e-015
lhumerus 31.8625 30.5782 1.82184
lradius 68.5898
lwrist 49.552
lhand -31.0261 -28.9636
lfingers 7.12502
lthumb -4.30835 0.972555
rfemur -24.4368 5.38502 2.34443
rtibia 49.1086
rfoot 8.89963 -17.3419
rtoes -13.1801
lfemur -22.8953 1.79713 -28.7193
ltibia 30.1788
lfoot -17.7752 11.2191
ltoes 12.3168
263
root 4.57713 17.2514 0.646214 11.5223 -1.24996 -2.00339
lowerback -2.50187 -1.57431 9.19343
upperback -5.62885 -2.04401 1.01714
thorax -4.7839 -1.40256 -4.03634
lowerneck -10.1632 3.1588 -0.753921
upperneck 43.8944 4.83373 0.574743
head 18.0471 1.87764 1.23529
rclavicle 6.5102e-015 3.57812e-015
rhumerus 0.193931 -18.4439 -6.77829
rradius 116.07
rwrist -63.5595
rhand -2.42504 -43.0738
rfingers 7.12502
rthumb 23.2657 -71.6882
lclavicle 6.5102e-015 3.57812e-015
lhumerus 32.2604 30.5479 2.64968
lradius 68.9124
lwrist 49.3633
lhand -30.034 -28.0818
lfingers 7.12502
lthumb -3.35028 1.87161
rfemur -24.7554 5.17182 2.43561
rtibia 49.6786
rfoot 8.60526 -16.9999
rtoes -13.7212
lfemur -22.9216 1.73484 -28.7959
ltibia 30.3296
lfoot -17.8398 11.2331
ltoes 12.2688
264
root 4.57212 17.2481 0.641003 11.4772 -1.29029 -2.08653
lowerback -2.43871 -1.57033 9.20001
upperback -5.57614 -2.03448 1.02266
thorax -4.76229 -1.39529 -4.03382
lowerneck -10.1914 3.14991 -0.851068
upperneck 43.9663 4.76052 0.780022
head 18.0856 1.85707 1.33862
rclavicle 8.19987e-016 -6.75868e-015
rhumerus -0.035376 -18.289 -6.96887
rradius 116.109
rwrist -63.6442
rhand -2.60123 -42.627
rfingers 7.12502
rthumb 23.0966 -71.2627
lclavicle 8.19987e-016 -6.75868e-015
lhumerus 31.0773 29.7009 1.33051
lradius 69.8709
lwrist 50.8448
lhand -29.8746 -27.9916
lfingers 7.12502
lthumb -3.19636 1.9642
rfemur -25.2213 5.23822 2.72317
rtibia 50.2722
rfoot 8.51643 -16.7478
rtoes -13.9989
lfemur -22.9642 1.76667 -28.6842
ltibia 30.4558
lfoot -17.9229 11.239
ltoes 12.3821
265
root 4.56326 17.2444 0.635021 11.4239 -1.514 -2.09446
lowerback -2.29363 -1.53076 9.03946
upperback -5.52151 -1.9696 1.02521
thorax -4.76836 -1.35437 -3.94077
lowerneck -10.1126 3.16494 -0.858371
upperneck 43.9627 4.75929 0.833501
head 18.059 1.86305 1.3621
rclavicle 4.26766e-015 -2.22639e-014
rhumerus -0.308541 -18.125 -7.14756
rradius 116.162
rwrist -63.4651
rhand -2.32594 -42.1941
rfingers 7.12502
rthumb 23.3607 -70.7965
lclavicle 4.26766e-015 -2.22639e-014
lhumerus 30.7115 29.3676 1.08725
lradius 70.4347
lwrist 51.3338
lhand -30.2902 -28.3589
lfingers 7.12502
lthumb -3.59769 1.59044
rfemur -25.7701 5.51958 2.89757
rtibia 50.867
rfoot 7.9899 -16.5683
rtoes -13.7128
lfemur -22.9963 1.9435 -28.6737
ltibia 30.5497
lfoot -17.962 11.2744
ltoes 12.3641
266
root 4.55964 17.2433 0.628581 11.3941 -1.61804 -2.06798
lowerback -2.21142 -1.52785 8.93676
upperback -5.48172 -1.96051 1.00342
thorax -4.76673 -1.34462 -3.9053
lowerneck -9.91373 3.11452 -0.866573
upperneck 43.9981 4.71396 0.742558
head 18.0324 1.83086 1.308
rclavicle -1.0517e-014 -1.27222e-014
rhumerus -0.502829 -18.0043 -7.44373
rradius 116.2
rwrist -63.1734
rhand -1.69151 -42.327
rfingers 7.12502
rthumb 23.9692 -70.8507
lclavicle -1.0517e-014 -1.27222e-014
lhumerus 30.6451 29.1512 1.2094
lradius 70.889
lwrist 51.4857
lhand -30.937 -28.5323
lfingers 7.12502
lthumb -4.22234 1.40564
rfemur -26.2532 5.62665 3.02922
rtibia 51.4503
rfoot 7.66294 -16.033
rtoes -14.5922
lfemur -23.0227 2.04251 -28.7184
ltibia 30.6161
lfoot -17.9494 11.3384
ltoes 12.0991
267
root 4.56224 17.2446 0.6275 11.3591 -1.57373 -2.03465
lowerback -2.21902 -1.59374 8.94242
upperback -5.37792 -2.05677 0.956063
thorax -4.66728 -1.38684 -3.95794
lowerneck -10.0421 3.0479 -0.877493
upperneck 44.1532 4.64851 0.664388
head 18.1679 1.784 1.26914
rclavicle -5.17803e-014 2.8625e-014
rhumerus -0.537803 -17.942 -7.90287
rradius 116.178
rwrist -62.8461
rhand -1.97478 -42.5442
rfingers 7.12502
rthumb 23.6976 -71.1034
lclavicle -5.17803e-014 2.8625e-014
lhumerus 30.5645 28.9941 1.30297
lradius 71.3261
lwrist 51.5235
lhand -30.88 -28.7307
lfingers 7.12502
lthumb -4.16726 1.20825
rfemur -26.6493 5.48012 3.16484
rtibia 52.0218
rfoot 7.72281 -15.2761
rtoes -15.2768
lfemur -22.9906 2.01376 -28.7564
ltibia 30.6572
lfoot -17.9928 11.3326
ltoes 12.291
268
root 4.56235 17.2395 0.622843 11.3427 -1.59501 -1.89252
lowerback -2.17337 -1.64787 8.81504
upperback -5.30893 -2.13067 0.901387
thorax -4.6252 -1.41586 -3.94243
lowerneck -10.2069 3.02939 -0.834327
upperneck 44.345 4.67233 0.529013
head 18.3414 1.77383 1.21072
rclavicle -5.08765e-015 8.34896e-015
rhumerus -0.61392 -17.8108 -8.226
rradius 116.223
rwrist -62.9114
rhand -2.51643 -42.5751
rfingers 7.12502
rthumb 23.178 -71.2006
lclavicle -5.08765e-015 8.34896e-015
lhumerus 30.5458 28.9108 1.53069
lradius 71.7016
lwrist 51.4933
lhand -30.261 -28.6108
lfingers 7.12502
lthumb -3.56947 1.33908
rfemur -27.1321 5.34867 3.16863
rtibia 52.6114
rfoot 7.60345 -14.6357
rtoes -15.1622
lfemur -22.9977 1.97591 -28.9087
ltibia 30.6918
lfoot -18.0027 11.3398
ltoes 12.6745
269
root 4.55749 17.2314 0.608521 11.3682 -1.64251 -1.75088
lowerback -2.07537 -1.65754 8.62845
upperback -5.32104 -2.13509 0.86799
thorax -4.68546 -1.41373 -3.87
lowerneck -10.1065 3.01728 -0.789494
upperneck 44.456 4.7117 0.365694
head 18.3939 1.77287 1.13198
rclavicle -3.73032e-015 7.95139e-015
rhumerus -0.778758 -17.6748 -8.45129
rradius 116.315
rwrist -63.3213
rhand -2.33025 -42.8493
rfingers 7.12502
rthumb 23.3566 -71.4522
lclavicle -3.73032e-015 7.95139e-015
lhumerus 30.5562 28.786 1.80505
lradius 72.0695
lwrist 51.613
lhand -29.8055 -27.9605
lfingers 7.12502
lthumb -3.1296 1.99627
rfemur -27.7289 5.35286 3.20618
rtibia 53.2436
rfoot 7.33726 -14.1224
rtoes -16.0841
lfemur -23.1212 1.90759 -29.0489
ltibia 30.7529
lfoot -17.9308 11.4027
ltoes 12.775
